<mxfile host="app.diagrams.net" agent="Mozilla/5.0 (Windows NT 10.0; Win64; x64; rv:140.0) Gecko/20100101 Firefox/140.0" version="28.0.5">
  <diagram name="Page-1" id="XAfBVmz3x1FEeWxHeyyU">
    <mxGraphModel dx="1826" dy="1151" grid="1" gridSize="10" guides="1" tooltips="1" connect="1" arrows="1" fold="1" page="0" pageScale="1" pageWidth="850" pageHeight="1100" math="0" shadow="0">
      <root>
        <mxCell id="0" />
        <mxCell id="1" parent="0" />
        <mxCell id="BSz51D68srN_pXWGbieb-5" value="Table Managment" style="ellipse;whiteSpace=wrap;html=1;verticalAlign=middle;align=left;" parent="1" vertex="1">
          <mxGeometry x="490" y="230" width="215" height="200" as="geometry" />
        </mxCell>
        <mxCell id="BSz51D68srN_pXWGbieb-6" value="Settlement" style="ellipse;whiteSpace=wrap;html=1;verticalAlign=middle;align=left;" parent="1" vertex="1">
          <mxGeometry x="-50" y="-150" width="215" height="200" as="geometry" />
        </mxCell>
        <mxCell id="BSz51D68srN_pXWGbieb-12" style="edgeStyle=orthogonalEdgeStyle;rounded=0;orthogonalLoop=1;jettySize=auto;html=1;entryX=0;entryY=0.5;entryDx=0;entryDy=0;" parent="1" target="q0lcb99qCDfQJukuc2Wi-3" edge="1">
          <mxGeometry relative="1" as="geometry">
            <mxPoint x="520" y="80" as="targetPoint" />
            <Array as="points">
              <mxPoint x="69" y="210" />
              <mxPoint x="70" y="210" />
              <mxPoint x="70" y="140" />
              <mxPoint x="270" y="140" />
            </Array>
            <mxPoint x="69" y="200" as="sourcePoint" />
          </mxGeometry>
        </mxCell>
        <mxCell id="BSz51D68srN_pXWGbieb-13" value="Supplies" style="edgeLabel;html=1;align=center;verticalAlign=middle;resizable=0;points=[];" parent="BSz51D68srN_pXWGbieb-12" vertex="1" connectable="0">
          <mxGeometry x="-0.8566" y="-1" relative="1" as="geometry">
            <mxPoint y="-10" as="offset" />
          </mxGeometry>
        </mxCell>
        <mxCell id="BSz51D68srN_pXWGbieb-14" value="Consumes" style="edgeLabel;html=1;align=center;verticalAlign=middle;resizable=0;points=[];" parent="BSz51D68srN_pXWGbieb-12" vertex="1" connectable="0">
          <mxGeometry x="0.8106" y="-1" relative="1" as="geometry">
            <mxPoint x="-61" y="-2" as="offset" />
          </mxGeometry>
        </mxCell>
        <mxCell id="BSz51D68srN_pXWGbieb-15" value="&lt;div&gt;JoinEvent&lt;/div&gt;&lt;div&gt;LeaveEvent&lt;/div&gt;" style="edgeLabel;html=1;align=center;verticalAlign=middle;resizable=0;points=[];" parent="BSz51D68srN_pXWGbieb-12" vertex="1" connectable="0">
          <mxGeometry x="-0.0556" relative="1" as="geometry">
            <mxPoint x="-34" as="offset" />
          </mxGeometry>
        </mxCell>
        <mxCell id="BSz51D68srN_pXWGbieb-20" style="edgeStyle=orthogonalEdgeStyle;rounded=0;orthogonalLoop=1;jettySize=auto;html=1;" parent="1" target="BSz51D68srN_pXWGbieb-7" edge="1">
          <mxGeometry relative="1" as="geometry">
            <mxPoint x="178" y="370" as="targetPoint" />
            <mxPoint x="490" y="329.48" as="sourcePoint" />
            <Array as="points">
              <mxPoint x="490" y="331" />
              <mxPoint x="400" y="331" />
              <mxPoint x="400" y="330" />
            </Array>
          </mxGeometry>
        </mxCell>
        <mxCell id="BSz51D68srN_pXWGbieb-22" value="Create Table&lt;br&gt;Join/Leave Request" style="edgeLabel;html=1;align=center;verticalAlign=middle;resizable=0;points=[];" parent="BSz51D68srN_pXWGbieb-20" vertex="1" connectable="0">
          <mxGeometry x="-0.0571" y="3" relative="1" as="geometry">
            <mxPoint x="-11" y="-3" as="offset" />
          </mxGeometry>
        </mxCell>
        <mxCell id="I6zMd1pXKkDjreIHzY4Y-1" value="Supplies" style="edgeLabel;html=1;align=center;verticalAlign=middle;resizable=0;points=[];" parent="BSz51D68srN_pXWGbieb-20" vertex="1" connectable="0">
          <mxGeometry x="-0.8102" y="2" relative="1" as="geometry">
            <mxPoint x="1" y="-13" as="offset" />
          </mxGeometry>
        </mxCell>
        <mxCell id="I6zMd1pXKkDjreIHzY4Y-2" value="Consumes" style="edgeLabel;html=1;align=center;verticalAlign=middle;resizable=0;points=[];" parent="BSz51D68srN_pXWGbieb-20" vertex="1" connectable="0">
          <mxGeometry x="0.8017" y="-2" relative="1" as="geometry">
            <mxPoint x="-3" y="-8" as="offset" />
          </mxGeometry>
        </mxCell>
        <mxCell id="BSz51D68srN_pXWGbieb-7" value="Gameplay" style="ellipse;whiteSpace=wrap;html=1;verticalAlign=middle;align=left;" parent="1" vertex="1">
          <mxGeometry x="-40" y="210" width="215" height="200" as="geometry" />
        </mxCell>
        <mxCell id="BSz51D68srN_pXWGbieb-8" value="Engine" style="ellipse;whiteSpace=wrap;html=1;aspect=fixed;" parent="1" vertex="1">
          <mxGeometry x="27.5" y="210" width="80" height="80" as="geometry" />
        </mxCell>
        <mxCell id="BSz51D68srN_pXWGbieb-9" value="Session" style="ellipse;whiteSpace=wrap;html=1;aspect=fixed;" parent="1" vertex="1">
          <mxGeometry x="27.5" y="330" width="80" height="80" as="geometry" />
        </mxCell>
        <mxCell id="BSz51D68srN_pXWGbieb-10" value="" style="endArrow=classic;html=1;rounded=0;exitX=0.5;exitY=1;exitDx=0;exitDy=0;" parent="1" edge="1">
          <mxGeometry width="50" height="50" relative="1" as="geometry">
            <mxPoint x="67.24000000000001" y="330" as="sourcePoint" />
            <mxPoint x="67" y="290" as="targetPoint" />
          </mxGeometry>
        </mxCell>
        <mxCell id="BSz51D68srN_pXWGbieb-11" value="con" style="edgeLabel;html=1;align=center;verticalAlign=middle;resizable=0;points=[];" parent="BSz51D68srN_pXWGbieb-10" vertex="1" connectable="0">
          <mxGeometry x="-0.125" y="1" relative="1" as="geometry">
            <mxPoint x="14" y="-23" as="offset" />
          </mxGeometry>
        </mxCell>
        <mxCell id="BSz51D68srN_pXWGbieb-19" value="sup" style="edgeLabel;html=1;align=center;verticalAlign=middle;resizable=0;points=[];" parent="BSz51D68srN_pXWGbieb-10" vertex="1" connectable="0">
          <mxGeometry x="-0.3886" relative="1" as="geometry">
            <mxPoint x="13" y="12" as="offset" />
          </mxGeometry>
        </mxCell>
        <mxCell id="BSz51D68srN_pXWGbieb-23" value="Table Manager determines if player is able to join a Table (Sets&amp;nbsp; in buy-in, ensures player has enough account balance for buy-in, check available seats). If checks pass, supply JoinRequestedEvent that includes player id, seat number, and buy-in amount&lt;br&gt;&lt;br&gt;TM just requests joins or leaves, joins may fail due to connectivity, leaves may happen without TM on ungraceful disconnect&lt;br&gt;&lt;br&gt;Create table includes max players and blinds" style="text;html=1;align=left;verticalAlign=top;whiteSpace=wrap;rounded=0;" parent="1" vertex="1">
          <mxGeometry x="165" y="370" width="340" height="150" as="geometry" />
        </mxCell>
        <mxCell id="BSz51D68srN_pXWGbieb-25" value="ledger" style="ellipse;whiteSpace=wrap;html=1;aspect=fixed;" parent="1" vertex="1">
          <mxGeometry x="17.5" y="-140" width="80" height="80" as="geometry" />
        </mxCell>
        <mxCell id="BSz51D68srN_pXWGbieb-27" value="JoinEvent includes the buy in amount, PlayerId, TableId&lt;br&gt;&lt;br&gt;LeaveEvent includes chip delta, PlayerId, TableId" style="text;html=1;align=left;verticalAlign=top;whiteSpace=wrap;rounded=0;" parent="1" vertex="1">
          <mxGeometry x="-90" y="80" width="140" height="120" as="geometry" />
        </mxCell>
        <mxCell id="q0lcb99qCDfQJukuc2Wi-3" value="JoinEvent/LeaveEvent&lt;br&gt;Event Bus" style="rounded=0;whiteSpace=wrap;html=1;" vertex="1" parent="1">
          <mxGeometry x="275" y="110" width="125" height="60" as="geometry" />
        </mxCell>
        <mxCell id="q0lcb99qCDfQJukuc2Wi-5" value="" style="endArrow=classic;html=1;rounded=0;exitX=-0.008;exitY=0.117;exitDx=0;exitDy=0;exitPerimeter=0;" edge="1" parent="1" source="q0lcb99qCDfQJukuc2Wi-3" target="BSz51D68srN_pXWGbieb-6">
          <mxGeometry width="50" height="50" relative="1" as="geometry">
            <mxPoint x="360" y="220" as="sourcePoint" />
            <mxPoint x="410" y="170" as="targetPoint" />
          </mxGeometry>
        </mxCell>
        <mxCell id="q0lcb99qCDfQJukuc2Wi-6" value="JoinEvent Reservation&lt;br&gt;LeaveEvent Settlement" style="edgeLabel;html=1;align=center;verticalAlign=middle;resizable=0;points=[];" vertex="1" connectable="0" parent="q0lcb99qCDfQJukuc2Wi-5">
          <mxGeometry x="0.0491" y="1" relative="1" as="geometry">
            <mxPoint as="offset" />
          </mxGeometry>
        </mxCell>
        <mxCell id="q0lcb99qCDfQJukuc2Wi-7" value="" style="endArrow=classic;html=1;rounded=0;exitX=1;exitY=1;exitDx=0;exitDy=0;" edge="1" parent="1" source="q0lcb99qCDfQJukuc2Wi-3" target="BSz51D68srN_pXWGbieb-5">
          <mxGeometry width="50" height="50" relative="1" as="geometry">
            <mxPoint x="360" y="220" as="sourcePoint" />
            <mxPoint x="410" y="170" as="targetPoint" />
          </mxGeometry>
        </mxCell>
        <mxCell id="q0lcb99qCDfQJukuc2Wi-8" value="JoinEvent Increment seated players&lt;br&gt;LeaveEvent Decrement seated players" style="edgeLabel;html=1;align=center;verticalAlign=middle;resizable=0;points=[];" vertex="1" connectable="0" parent="q0lcb99qCDfQJukuc2Wi-7">
          <mxGeometry x="-0.136" y="1" relative="1" as="geometry">
            <mxPoint x="1" as="offset" />
          </mxGeometry>
        </mxCell>
      </root>
    </mxGraphModel>
  </diagram>
</mxfile>
